<svg id="Layer_1" enable-background="new 0 0 512 512" height="512" viewBox="0 0 512 512" width="512" xmlns="http://www.w3.org/2000/svg"><g><path d="m324.485 309.17c-2.251 12.73-5.562 25.15-9.923 37.24-9.614 26.68-24.339 51.72-43.986 74.76-17.086 20.04-38.194 38.87-62.743 55.96-1.27.89-2.771 1.35-4.281 1.35-.65 0-1.29-.09-1.931-.25-59.191-15.71-106.288-42.79-139.971-80.49-27.02-30.25-45.426-67.27-54.7-110.02-15.706-72.34.02-135.29.7-137.93 1.01-3.95 4.982-6.36 8.953-5.45.58.13 59.451 13.3 129.497.95 70.045-12.35 120.864-44.84 121.364-45.17 3.421-2.21 7.983-1.3 10.274 2.06 1.21 1.76 29.631 43.78 43.286 104.17 8.052 35.63 9.213 70.23 3.461 102.82z" fill="#fee8c7"/><path d="m314.561 346.41c-9.614 26.68-24.339 51.72-43.986 74.76-17.086 20.04-38.194 38.87-62.743 55.96-1.27.89-2.771 1.35-4.281 1.35 58.581-76.69 67.454-132.07 67.454-132.07z" fill="#fccd7f"/><g fill="#fff"><path d="m141.738 278.228c3.154-1.031 5.256-4.011 5.168-7.327-.388-14.662-7.321-26.604-19.521-33.627-17.219-9.911-43.723-8.936-64.455 2.369-2.827 1.542-4.355 4.715-3.795 7.886 2.244 12.726 9.004 22.793 19.55 29.113 8.202 4.916 18.358 7.382 29.852 7.382 10.163 0 21.373-1.928 33.201-5.796z"/><path d="m260.273 296.511c-.351-3.178-2.679-5.784-5.797-6.492-3.119-.707-6.344.64-8.033 3.354-.152.246-15.881 24.673-68.242 33.902-51.685 9.113-75.542-8.388-75.726-8.526-2.517-1.974-6.005-2.139-8.696-.406-2.688 1.731-3.984 4.976-3.226 8.083.174.715 4.437 17.696 18.586 32.962 10.792 11.645 29.147 24.096 58.283 24.095 6.277 0 13.055-.578 20.365-1.866 41.238-7.269 58.816-29.994 66.299-47.778 8.072-19.182 6.267-36.597 6.187-37.328z"/></g><g><path d="m505.05 222.32c-9.273 42.76-27.68 79.78-54.7 110.03-33.682 37.7-80.779 64.78-139.971 80.48-.64.17-1.28.25-1.931.25-1.511 0-3.011-.46-4.282-1.34-50.258-35-85.251-76.54-103.997-123.49-15.035-37.66-19.667-78.74-13.765-122.09 9.994-73.35 46.317-127.12 47.857-129.37 2.291-3.36 6.852-4.28 10.274-2.06.5.32 51.319 32.82 121.364 45.17 43.046 7.58 81.77 5.56 105.418 2.83 14.925-1.72 23.849-3.73 24.079-3.78 3.971-.92 7.943 1.5 8.953 5.45.681 2.64 16.406 65.59.701 137.92z" fill="#fd4755"/><g fill="#fff"><path d="m449.07 174.251c-20.731-11.306-47.235-12.28-64.455-2.369-12.2 7.023-19.133 18.965-19.521 33.627-.088 3.316 2.013 6.295 5.168 7.327 11.829 3.868 23.038 5.796 33.201 5.796 11.492 0 21.65-2.466 29.852-7.382 10.546-6.32 17.306-16.388 19.55-29.113.56-3.171-.968-6.344-3.795-7.886z"/><path d="m316.318 203.328c.083.002.166.004.249.004 3.216 0 6.088-2.055 7.114-5.122 4.651-13.911 2.222-27.503-6.839-38.274-12.789-15.2-38.032-23.344-61.378-19.811-3.185.482-5.706 2.942-6.265 6.113-2.245 12.726.663 24.497 8.411 34.042 11.355 13.989 32.204 22.174 58.708 23.048z"/><path d="m418.222 252.951c-2.689-1.731-6.179-1.569-8.697.406-.227.179-23.363 17.755-75.726 8.525-51.687-9.11-68.117-33.709-68.242-33.901-1.689-2.716-4.914-4.063-8.033-3.355-3.118.708-5.446 3.314-5.797 6.492-.08.732-1.884 18.147 6.188 37.329 7.483 17.784 25.061 40.509 66.299 47.778 7.312 1.289 14.085 1.867 20.364 1.866 29.133-.001 47.493-12.452 58.284-24.095 14.149-15.266 18.412-32.247 18.586-32.962.757-3.106-.538-6.352-3.226-8.083z"/></g><path d="m505.05 222.32c-9.273 42.76-27.68 79.78-54.7 110.03-33.682 37.7-80.779 64.78-139.971 80.48 198.802-104.69 170.512-287.92 160.938-330.1 14.925-1.72 23.849-3.73 24.079-3.78 3.971-.92 7.943 1.5 8.953 5.45.681 2.64 16.406 65.59.701 137.92z" fill="#c41926"/></g></g></svg>