<svg id="_x30_2" enable-background="new 0 0 113.867 99.776" height="512" viewBox="0 0 113.867 99.776" width="512" xmlns="http://www.w3.org/2000/svg"><g><g><g><path d="m24.147 41.186-.52.86-.37.61c-.13.22-.36.39-.61.45-.08.02-.16.03-.24.03-.18 0-.36-.05-.52-.15l-21.4-12.91c-.23-.14-.4-.36-.46-.62s-.02-.53.12-.76l.88-1.46c.29-.48.9-.63 1.37-.34l1.03.62 20.38 12.29c.23.14.39.36.45.62.07.26.03.53-.11.76z" fill="#3d4d00"/></g></g><g><path d="m23.627 42.046-.37.61c-.13.22-.36.39-.61.45-.08.02-.16.03-.24.03-.18 0-.36-.05-.52-.15l-21.4-12.91c-.23-.14-.4-.36-.46-.62s-.02-.53.12-.76l.88-1.46c.285-.472.898-.624 1.37-.34l1.03.62-.381 1.537c-.106.429.082.877.462 1.101z" fill="#232f00"/></g><g><path d="m97.867 49.776c-.552 0-1-.448-1-1v-28c0-.552.448-1 1-1s1 .448 1 1v28c0 .552-.448 1-1 1z" fill="#676767"/></g><g><path d="m87.867 49.776c-.552 0-1-.448-1-1v-23c0-.552.448-1 1-1s1 .448 1 1v23c0 .552-.448 1-1 1z" fill="#676767"/></g><g><path d="m113.687 70.356-12.34 17.5c-1.21 1.82-3.27 2.92-5.48 2.92h-70.52c-1.86 0-3.64-.79-4.89-2.16l-12.37-15.21c-.14-.18-.22-.4-.22-.63v-2c0-.55.44-.99.99-1l1.59-.02 99.68-.95 2.73-.03h.01c.37 0 .71.21.89.54.17.33.14.73-.07 1.04z" fill="#3d4d00"/></g><g><path d="m113.687 70.356-12.34 17.5c-1.21 1.82-3.27 2.92-5.48 2.92h-70.52c-1.86 0-3.64-.79-4.89-2.16l-12.37-15.21c-.14-.18-.22-.4-.22-.63v-2c0-.547.44-.993.988-1h1.012l12.779 16.535c.772.927 1.921 1.455 3.127 1.439l68.594.026c1.265-.017 3.447-.632 4.188-1.657l12.572-17.313 1.73-.03h.01c.37 0 .71.21.89.54.17.33.14.73-.07 1.04z" fill="#232f00"/></g><g><path d="m25.867 82.776h70v3h-70z" fill="#778e16"/></g><g><circle cx="16.867" cy="76.776" fill="#ffc232" r="4"/></g><g><path d="m19.867 75.776 1.835 3.058c.723 1.205 2.025 1.942 3.43 1.942h63.788c1.29 0 2.571-.208 3.795-.616l6.639-2.213c1.983-.661 3.123-2.737 2.616-4.765l-1.103-4.406z" fill="#232f00"/></g><g><path d="m108.867 75.776c0 1.11-.46 2.12-1.19 2.85-.6.58-1.37.98-2.23 1.1-.19.04-.38.05-.58.05-2.21 0-4-1.79-4-4s1.79-4 4-4 4 1.79 4 4z" fill="#ffc232"/></g><g><path d="m108.507 74.136c-.5-.23-1.06-.36-1.64-.36-2.21 0-4 1.79-4 4 0 .58.13 1.14.36 1.64-1.39-.62-2.36-2.02-2.36-3.64 0-2.21 1.79-4 4-4 1.62 0 3.02.97 3.64 2.36z" fill="#f08f03"/></g><g><path d="m20.507 75.136c-.5-.23-1.06-.36-1.64-.36-2.21 0-4 1.79-4 4 0 .58.13 1.14.36 1.64-1.39-.62-2.36-2.02-2.36-3.64 0-2.21 1.79-4 4-4 1.62 0 3.02.97 3.64 2.36z" fill="#f08f03"/></g><g><circle cx="25.367" cy="84.276" fill="#ffc232" r="6.5"/></g><g><circle cx="39.367" cy="84.276" fill="#ffc232" r="6.5"/></g><g><circle cx="53.367" cy="84.276" fill="#ffc232" r="6.5"/></g><g><circle cx="67.367" cy="84.276" fill="#ffc232" r="6.5"/></g><g><circle cx="81.367" cy="84.276" fill="#ffc232" r="6.5"/></g><g><path d="m101.867 84.276c0 2.33-1.23 4.37-3.08 5.52-.83.52-1.8.86-2.83.95-.19.02-.39.03-.59.03-3.58 0-6.5-2.92-6.5-6.5s2.92-6.5 6.5-6.5 6.5 2.92 6.5 6.5z" fill="#ffc232"/></g><g><path d="m101.577 82.336c-1.13-.97-2.6-1.56-4.21-1.56-3.58 0-6.5 2.92-6.5 6.5 0 .67.1 1.32.29 1.93-1.4-1.18-2.29-2.96-2.29-4.93 0-3.58 2.92-6.5 6.5-6.5 2.91 0 5.38 1.92 6.21 4.56z" fill="#f08f03"/></g><g><path d="m87.577 82.336c-1.13-.97-2.6-1.56-4.21-1.56-3.58 0-6.5 2.92-6.5 6.5 0 .67.1 1.32.29 1.93-1.4-1.18-2.29-2.96-2.29-4.93 0-3.58 2.92-6.5 6.5-6.5 2.91 0 5.38 1.92 6.21 4.56z" fill="#f08f03"/></g><g><path d="m73.577 82.336c-1.13-.97-2.6-1.56-4.21-1.56-3.58 0-6.5 2.92-6.5 6.5 0 .67.1 1.32.29 1.93-1.4-1.18-2.29-2.96-2.29-4.93 0-3.58 2.92-6.5 6.5-6.5 2.91 0 5.38 1.92 6.21 4.56z" fill="#f08f03"/></g><g><path d="m59.577 82.336c-1.13-.97-2.6-1.56-4.21-1.56-3.58 0-6.5 2.92-6.5 6.5 0 .67.1 1.32.29 1.93-1.4-1.18-2.29-2.96-2.29-4.93 0-3.58 2.92-6.5 6.5-6.5 2.91 0 5.38 1.92 6.21 4.56z" fill="#f08f03"/></g><g><path d="m45.577 82.336c-1.13-.97-2.6-1.56-4.21-1.56-3.58 0-6.5 2.92-6.5 6.5 0 .67.1 1.32.29 1.93-1.4-1.18-2.29-2.96-2.29-4.93 0-3.58 2.92-6.5 6.5-6.5 2.91 0 5.38 1.92 6.21 4.56z" fill="#f08f03"/></g><g><path d="m31.577 82.336c-1.13-.97-2.6-1.56-4.21-1.56-3.58 0-6.5 2.92-6.5 6.5 0 .67.1 1.32.29 1.93-1.4-1.18-2.29-2.96-2.29-4.93 0-3.58 2.92-6.5 6.5-6.5 2.91 0 5.38 1.92 6.21 4.56z" fill="#f08f03"/></g><g><circle cx="25.367" cy="84.276" fill="#b4d898" r="3.5"/></g><g><circle cx="39.367" cy="84.276" fill="#b4d898" r="3.5"/></g><g><circle cx="53.367" cy="84.276" fill="#b4d898" r="3.5"/></g><g><circle cx="67.367" cy="84.276" fill="#b4d898" r="3.5"/></g><g><circle cx="81.367" cy="84.276" fill="#b4d898" r="3.5"/></g><g><circle cx="95.367" cy="84.276" fill="#b4d898" r="3.5"/></g><g><path d="m98.827 83.796c-.63-.63-1.5-1.02-2.46-1.02-1.93 0-3.5 1.57-3.5 3.5 0 .16.01.32.04.48-.64-.63-1.04-1.51-1.04-2.48 0-1.93 1.57-3.5 3.5-3.5 1.77 0 3.23 1.32 3.46 3.02z" fill="#78935c"/></g><g><path d="m84.827 83.796c-.63-.63-1.5-1.02-2.46-1.02-1.93 0-3.5 1.57-3.5 3.5 0 .16.01.32.04.48-.64-.63-1.04-1.51-1.04-2.48 0-1.93 1.57-3.5 3.5-3.5 1.77 0 3.23 1.32 3.46 3.02z" fill="#78935c"/></g><g><path d="m70.827 83.796c-.63-.63-1.5-1.02-2.46-1.02-1.93 0-3.5 1.57-3.5 3.5 0 .16.01.32.04.48-.64-.63-1.04-1.51-1.04-2.48 0-1.93 1.57-3.5 3.5-3.5 1.77 0 3.23 1.32 3.46 3.02z" fill="#78935c"/></g><g><path d="m56.827 83.806c-.63-.632-1.5-1.023-2.46-1.023-1.93 0-3.5 1.575-3.5 3.512 0 .161.01.321.04.482-.64-.632-1.04-1.515-1.04-2.488 0-1.938 1.57-3.513 3.5-3.513 1.77 0 3.23 1.324 3.46 3.03z" fill="#78935c"/></g><g><path d="m42.827 83.796c-.63-.63-1.5-1.02-2.46-1.02-1.93 0-3.5 1.57-3.5 3.5 0 .16.01.32.04.48-.64-.63-1.04-1.51-1.04-2.48 0-1.93 1.57-3.5 3.5-3.5 1.77 0 3.23 1.32 3.46 3.02z" fill="#78935c"/></g><g><path d="m28.827 83.796c-.63-.63-1.5-1.02-2.46-1.02-1.93 0-3.5 1.57-3.5 3.5 0 .16.01.32.04.48-.64-.63-1.04-1.51-1.04-2.48 0-1.93 1.57-3.5 3.5-3.5 1.77 0 3.23 1.32 3.46 3.02z" fill="#78935c"/></g><g><path d="m80.867 42.776v6c0 .55-.45 1-1 1h-7c-.55 0-1-.45-1-1v-6c0-.55.45-1 1-1h7c.55 0 1 .45 1 1z" fill="#b4d898"/></g><g><path d="m74.867 45.776v-4h-2c-.55 0-1 .45-1 1v4 2c0 .55.45 1 1 1h2 5c.55 0 1-.45 1-1v-2h-5c-.552 0-1-.448-1-1z" fill="#78935c"/></g><g><path d="m57.287 58.036-.23.39-3.38 5.6c-.19.32-.52.49-.86.49-.18 0-.36-.05-.52-.15l-3.17-1.91-30.22-18.24c-.23-.13-.39-.35-.45-.61l-.68-2.75c-.07-.25-.02-.53.11-.75l1.55-2.57c.2-.33.56-.51.94-.48l2.89.23 1.57.12c.15.01.3.06.43.14l2.36 1.42 29.32 17.7c.23.14.39.36.46.61.06.26.02.53-.12.76z" fill="#b4d898"/></g><g><path d="m49.867 58.776-.74 3.68-30.22-18.24c-.23-.13-.39-.35-.45-.61l-.68-2.75c-.07-.25-.02-.53.11-.75l1.548-2.566c.197-.327.562-.514.942-.484l2.89.23-.702 2.25c-.41 1.316.129 2.742 1.307 3.457z" fill="#78935c"/></g><g><path d="m102.867 48.776v10c0 .55-.45 1-1 1h-22.79l-6.82 2.92c-.12.05-.25.08-.39.08h-19c-.07 0-.15-.01-.22-.02l-.04-.01-21.96-4.99c-.46-.11-.78-.51-.78-.98v-3c0-.48.34-.89.81-.98l1.19-.23 2.13-.41 11.89-2.29 10.79-2.07c.06-.01.13-.02.19-.02h45c.55 0 1 .45 1 1z" fill="#3d4d00"/></g><g><path d="m102.867 54.776v4c0 .55-.45 1-1 1h-22.79l-6.82 2.92c-.12.05-.25.08-.39.08h-19c-.07-.01-.19-.02-.26-.03l-21.96-4.99c-.46-.11-.78-.51-.78-.98v-3c0-.48.34-.89.81-.98 0 0 21.19 4.98 23.19 4.98h15.55c.96 0 1.91-.17 2.81-.51l4.94-1.85c1.12-.42 2.31-.64 3.51-.64z" fill="#232f00"/></g><g><path d="m113.867 61.776v10c0 .44-.28.82-.7.95l-22 7c-.09.03-.2.05-.3.05h-74c-.2 0-.39-.06-.55-.17l-12-8c-.25-.16-.42-.43-.45-.73-.02-.3.08-.6.29-.81l3-3c.15-.14.33-.24.53-.27l33-6c.06-.01.12-.02.18-.02h72c.55 0 1 .45 1 1z" fill="#83a142"/></g><g><path d="m113.867 61.776v8c0 .55-.45 1-1 1h-26c-.27 0-.52-.11-.71-.29l-8-8c-.28-.29-.37-.72-.21-1.09.15-.38.52-.62.92-.62h34c.55 0 1 .45 1 1z" fill="#b4d898"/></g><g><path d="m67.866 39.776c-.15 0-.303-.034-.446-.105-.494-.247-.694-.848-.447-1.342l4-8c.247-.493.847-.695 1.342-.447.494.247.694.848.447 1.342l-4 8c-.176.35-.529.552-.896.552z" fill="#375e7d"/></g><g><path d="m57.868 39.776c-.367 0-.72-.202-.896-.553l-4-8c-.247-.494-.047-1.095.447-1.342.495-.248 1.095-.046 1.342.447l4 8c.247.494.047 1.095-.447 1.342-.143.072-.296.106-.446.106z" fill="#375e7d"/></g><g><path d="m64.867 66.776v4c0 .55-.45 1-1 1h-59c-.4 0-.77-.24-.92-.62-.16-.37-.07-.8.21-1.09l3-3c.15-.14.34-.24.55-.28l6-1c.05-.01.1-.01.16-.01h50c.55 0 1 .45 1 1z" fill="#3d4d00"/></g><g><path d="m62.867 29.776c-.552 0-1-.448-1-1v-17c0-.552.448-1 1-1s1 .448 1 1v17c0 .552-.448 1-1 1z" fill="#375e7d"/></g><g><path d="m22.407 75.776h47.46c1.657 0 3 1.343 3 3v1h-56c-.2 0-.39-.06-.55-.17l-12-8c-.25-.16-.42-.43-.45-.73-.02-.3.08-.6.29-.81l2.06-2.06 7.869 5.249c2.464 1.644 5.359 2.521 8.321 2.521z" fill="#55672b"/></g><g><path d="m113.867 68.586v3.19c0 .44-.28.82-.7.95l-22 7c-.08.02-.22.04-.3.05h-17v-1c0-1.66 1.34-3 3-3h11.71c1.52 0 3.03-.23 4.48-.68l13.81-4.32z" fill="#55672b"/></g><g><path d="m62.867 39.776c-.552 0-1-.448-1-1v-5c0-.552.448-1 1-1s1 .448 1 1v5c0 .552-.448 1-1 1z" fill="#375e7d"/></g><g><path d="m62.867 8.776c-.552 0-1-.448-1-1v-2c0-.552.448-1 1-1s1 .448 1 1v2c0 .552-.448 1-1 1z" fill="#375e7d"/></g><g><path d="m64.867 68.776v2c0 .55-.45 1-1 1h-59c-.4 0-.77-.24-.92-.62-.16-.37-.07-.8.21-1.09l3-3c.15-.14.34-.24.55-.28l6.144-1.024c.007.006.009.008.016.014v1c0 1.105.895 2 2 2z" fill="#232f00"/></g><g><path d="m113.867 67.776v3h-27c-.27 0-.52-.11-.71-.29l-8-8c-.07-.08-.69-.72-1.63-1.71h7.09l3.75 5c.94 1.26 2.43 2 4 2z" fill="#78935c"/></g><g><g><path d="m113.867 64.776v2h-8.02c-.55 0-1-.45-1-1s.45-1 1-1z" fill="#78935c"/></g><g><path d="m101.957 65.776c0 .55-.45 1-1 1h-18.51l-2-2h20.51c.55 0 1 .45 1 1z" fill="#78935c"/></g></g><g><path d="m43.867 95.776h-35c-.552 0-1-.448-1-1s.448-1 1-1h35c.552 0 1 .448 1 1s-.448 1-1 1z" fill="#375e7d"/></g><g><path d="m51.867 95.776h-4c-.552 0-1-.448-1-1s.448-1 1-1h4c.552 0 1 .448 1 1s-.448 1-1 1z" fill="#375e7d"/></g><g><path d="m57.867 95.776h-2c-.552 0-1-.448-1-1s.448-1 1-1h2c.552 0 1 .448 1 1s-.448 1-1 1z" fill="#375e7d"/></g><g><path d="m71.867 99.776h-35c-.552 0-1-.448-1-1s.448-1 1-1h35c.552 0 1 .448 1 1s-.448 1-1 1z" fill="#375e7d"/></g><g><path d="m79.867 95.776h-17c-.552 0-1-.448-1-1s.448-1 1-1h17c.552 0 1 .448 1 1s-.448 1-1 1z" fill="#375e7d"/></g><g><path d="m79.867 99.776h-4c-.552 0-1-.448-1-1s.448-1 1-1h4c.552 0 1 .448 1 1s-.448 1-1 1z" fill="#375e7d"/></g><g><path d="m105.867 99.776h-22c-.552 0-1-.448-1-1s.448-1 1-1h22c.552 0 1 .448 1 1s-.448 1-1 1z" fill="#375e7d"/></g><g><g><path d="m67.867 55.776h-4c-.552 0-1-.448-1-1s.448-1 1-1h4c.552 0 1 .448 1 1s-.448 1-1 1z" fill="#232f00"/></g></g><g><g><path d="m82.867 55.776h-11c-.552 0-1-.448-1-1s.448-1 1-1h11c.552 0 1 .448 1 1s-.448 1-1 1z" fill="#232f00"/></g></g><g><g><path d="m99.651 9.56c-.256 0-.512-.098-.707-.293-.391-.391-.391-1.023 0-1.414l2.25-2.25c.391-.391 1.023-.391 1.414 0s.391 1.023 0 1.414l-2.25 2.25c-.196.195-.451.293-.707.293z" fill="#0cc1fe"/></g><g><path d="m104.954 4.256c-.256 0-.512-.098-.707-.293-.391-.391-.391-1.023 0-1.414l2.243-2.243c.391-.391 1.023-.391 1.414 0s.391 1.023 0 1.414l-2.243 2.243c-.195.196-.451.293-.707.293z" fill="#0cc1fe"/></g><g><path d="m101.898 4.254c-.256 0-.512-.098-.707-.293l-2.254-2.254c-.391-.39-.391-1.024 0-1.414.391-.391 1.023-.391 1.414 0l2.254 2.254c.391.39.391 1.023 0 1.414-.196.195-.451.293-.707.293z" fill="#0cc1fe"/></g><g><path d="m107.203 9.559c-.256 0-.512-.098-.707-.293l-2.247-2.247c-.391-.391-.391-1.024 0-1.414s1.023-.391 1.414 0l2.247 2.247c.391.391.391 1.023 0 1.414-.195.195-.451.293-.707.293z" fill="#0cc1fe"/></g></g><g><g><path d="m30.651 22.56c-.256 0-.512-.098-.707-.293-.391-.391-.391-1.023 0-1.414l2.25-2.25c.391-.391 1.023-.391 1.414 0s.391 1.023 0 1.414l-2.25 2.25c-.196.195-.451.293-.707.293z" fill="#0cc1fe"/></g><g><path d="m35.954 17.256c-.256 0-.512-.098-.707-.293-.391-.391-.391-1.023 0-1.414l2.243-2.243c.391-.391 1.023-.391 1.414 0s.391 1.023 0 1.414l-2.243 2.243c-.195.196-.451.293-.707.293z" fill="#0cc1fe"/></g><g><path d="m32.898 17.254c-.256 0-.512-.098-.707-.293l-2.254-2.254c-.391-.39-.391-1.024 0-1.414.391-.391 1.023-.391 1.414 0l2.254 2.254c.391.39.391 1.023 0 1.414-.196.195-.451.293-.707.293z" fill="#0cc1fe"/></g><g><path d="m38.203 22.559c-.256 0-.512-.098-.707-.293l-2.247-2.247c-.391-.391-.391-1.023 0-1.414s1.023-.391 1.414 0l2.247 2.247c.391.391.391 1.023 0 1.414-.195.196-.451.293-.707.293z" fill="#0cc1fe"/></g></g><g><path d="m97.867 51.776v8h-16v-8c0-.55.45-1 1-1h14c.55 0 1 .45 1 1z" fill="#ffc232"/></g><g><path d="m97.867 56.776v3h-16v-8c0-.55.45-1 1-1h2.14l.49 3.43c.03.2.08.39.15.57.41 1.18 1.53 2 2.82 2z" fill="#f08f03"/></g></g></svg>