<svg height="512" viewBox="0 0 64 64" width="512" xmlns="http://www.w3.org/2000/svg"><g id="Layer_32" data-name="Layer 32"><ellipse cx="32" cy="33" fill="#5d6972" rx="15" ry="2"/><path d="m20.571 1.076h8.443v46h-8.443z" fill="#f8c460" transform="matrix(-.94 .342 -.342 -.94 56.323 38.22)"/><path d="m36.625 44.245-.73-2.006-3.364-9.239c-.178 0-.352 0-.531 0q-1.363 0-2.653-.034a4.011 4.011 0 0 1 -3.676-2.632l-9.982-27.421-2.73.994 10.459 28.736 5.276 14.494 7.933-2.888z" fill="#faaf42"/><path d="m28 15h8v34h-8z" fill="#ff938d"/><path d="m28 15 4-7 4 7z" fill="#ffd3b6"/><path d="m32 8-4 7h3l2.5-4.375z" fill="#f9b995"/><path d="m33.033 32.995a2.008 2.008 0 0 1 -2.033-2v-15.995h-3v34h8v-16.074q-1.434.053-2.967.069z" fill="#f27875"/><path d="m32 46a1 1 0 0 1 -1-1v-26a1 1 0 0 1 2 0v26a1 1 0 0 1 -1 1z" fill="#f8c460"/><path d="m35.112 48.8a3.2 3.2 0 0 1 -1.923-4.086l8.632-23.881a2.113 2.113 0 0 1 2.721-1.257l2 .734a2.135 2.135 0 0 1 1.282 2.723l-8.631 23.885a3.169 3.169 0 0 1 -4.081 1.882z" fill="#f8c460"/><path d="m43.4 18-.421-3.5 6.528-5.5 1.493 8.438-2.545 2.4a2 2 0 0 1 -2.059.422l-1.7-.622a2 2 0 0 1 -1.296-1.638z" fill="#ff938d"/><path d="m48.419 19.887a3.19 3.19 0 0 1 -2.071-2.617l-.2-1.7a2 2 0 0 1 .7-1.768l3.091-2.6-.396-2.202-6.528 5.5.42 3.5a2 2 0 0 0 1.3 1.64l1.7.622a1.989 1.989 0 0 0 1.987-.371z" fill="#f27875"/><path d="m45.48 19.923-.938-.344a2.127 2.127 0 0 0 -2.726 1.271l-8.627 23.868a3.277 3.277 0 0 0 3.92 4.143 3.138 3.138 0 0 0 2.084-1.943l5.358-14.825q-.325.067-.689.129a2 2 0 0 1 -2.2-2.655l3.156-8.731a2.078 2.078 0 0 1 .662-.913z" fill="#faaf42"/><path d="m32 35c-8.284 0-15-.9-15-2v28c0 1.1 6.716 2 15 2s15-.9 15-2v-28c0 1.1-6.716 2-15 2z" fill="#7a838b"/><path d="m35 60c-8.284 0-15-.9-15-2v-23.8c-1.876-.334-3-.747-3-1.2v28c0 1.1 6.716 2 15 2s15-.9 15-2v-1.8a75.1 75.1 0 0 1 -12 .8z" fill="#5d6972"/><path d="m45 39a1 1 0 0 1 -1-1v-2a1 1 0 0 1 2 0v2a1 1 0 0 1 -1 1z" fill="#fff"/><path d="m49.86 10.96-1.58 4.35a1 1 0 0 1 -.94.66 1.016 1.016 0 0 1 -.34-.06 1 1 0 0 1 -.6-1.28l1.57-4.33 1.54-1.3z" fill="#f8c460"/><g fill="#ff938d"><path d="m26.5 28.77-3.96 1.45-.69-1.88 3.97-1.44a.995.995 0 1 1 .68 1.87z"/><path d="m23.15 25.74-1.98.72-.69-1.88 1.99-.72a1 1 0 1 1 .68 1.88z"/><path d="m25.89 33.25-1.99.73-.68-1.88 1.98-.72a1 1 0 0 1 .69 1.87z"/><path d="m23.77 21.26-3.97 1.44-.68-1.88 3.96-1.44a1 1 0 0 1 .69 1.88z"/><path d="m20.41 18.22-1.98.72-.68-1.88 1.98-.72a1 1 0 0 1 .68 1.88z"/><path d="m21.03 13.74-3.97 1.44-.68-1.88 3.97-1.44a1 1 0 0 1 .68 1.88z"/><path d="m17.68 10.7-1.99.72-.68-1.88 1.98-.72a1 1 0 1 1 .69 1.88z"/><path d="m18.29 6.22-3.96 1.45-.69-1.88 3.97-1.45a1 1 0 1 1 .68 1.88z"/></g></g></svg>