<svg clip-rule="evenodd" fill-rule="evenodd" stroke-linejoin="round" stroke-miterlimit="2" viewBox="0 0 64 64" xmlns="http://www.w3.org/2000/svg" xmlns:xlink="http://www.w3.org/1999/xlink"><linearGradient id="lg1"><stop offset="0" stop-color="#b6c2c4"/><stop offset="1" stop-color="#c1c1a9"/></linearGradient><linearGradient id="_Linear1" gradientTransform="matrix(-3.81 -3.81 3.81 -3.81 47.257 20.552)" gradientUnits="userSpaceOnUse" x1="0" x2="1" xlink:href="#lg1" y1="0" y2="0"/><linearGradient id="_Linear2" gradientTransform="matrix(-4 -4 4 -4 46.829 21.171)" gradientUnits="userSpaceOnUse" x1="0" x2="1" xlink:href="#lg1" y1="0" y2="0"/><linearGradient id="_Linear3" gradientTransform="matrix(6.685 -6.685 6.685 6.685 430.086 70.5)" gradientUnits="userSpaceOnUse" x1="0" x2="1" y1="0" y2="0"><stop offset="0" stop-color="#405f63"/><stop offset="1" stop-color="#15363a"/></linearGradient><linearGradient id="_Linear4" gradientTransform="matrix(7.994 7.994 -7.994 7.994 23 49.006)" gradientUnits="userSpaceOnUse" x1="0" x2="1" y1="0" y2="0"><stop offset="0" stop-color="#d3dfe0"/><stop offset="1" stop-color="#a0acad"/></linearGradient><linearGradient id="lg2"><stop offset="0" stop-color="#d3dfe0"/><stop offset="1" stop-color="#ecf2f3"/></linearGradient><linearGradient id="_Linear5" gradientTransform="matrix(21 -21 21 21 28 52)" gradientUnits="userSpaceOnUse" x1="0" x2="1" xlink:href="#lg2" y1="0" y2="0"/><linearGradient id="_Linear6" gradientTransform="matrix(0 19.377 -19.791 0 30.711 37.312)" gradientUnits="userSpaceOnUse" x1="0" x2="1" xlink:href="#lg2" y1="0" y2="0"/><linearGradient id="_Linear7" gradientTransform="matrix(8.824 0 0 9.366 25.882 46.376)" gradientUnits="userSpaceOnUse" x1="0" x2="1" y1="0" y2="0"><stop offset="0" stop-color="#05a9d5"/><stop offset="1" stop-color="#6bcbe5"/></linearGradient><g transform="translate(-1688 -8)"><g transform="translate(1696.17 15.829)"><path d="m34.829 25.171s11.844-11.844 16.171-16.171c.531-.531 1.25-.829 2-.829s1.469.298 2 .829c.53.53.829 1.25.829 2s-.298 1.469-.829 2c-4.327 4.327-16.171 16.171-16.171 16.171z" fill="url(#_Linear1)"/></g><g transform="translate(1680.17 -.171)"><path d="m34.829 25.171s11.844-11.844 16.171-16.171c.531-.531 1.25-.829 2-.829s1.469.298 2 .829c.53.53.829 1.25.829 2s-.298 1.469-.829 2c-4.327 4.327-16.171 16.171-16.171 16.171z" fill="url(#_Linear2)"/></g><g transform="translate(1260)"><path d="m440.707 63.707c.391-.39.391-1.024 0-1.414l-3-3c-.39-.391-1.024-.391-1.414 0l-8 8c-.391.39-.391 1.024 0 1.414l3 3c.39.391 1.024.391 1.414 0z" fill="url(#_Linear3)"/></g><g transform="translate(1673 7)"><path d="m33.584 54.416s-2.87 2.87-4.064 4.064c-.99.99-2.564 1.084-3.665.219-1.496-1.224-3.332-3.057-4.547-4.564-.859-1.096-.765-2.661.22-3.645 1.185-1.203 4.056-4.074 4.056-4.074z" fill="url(#_Linear4)"/></g><g transform="translate(1673 7)"><path d="m63 45s-3.639 3.639-7.001 7.001c-3.713 3.713-8.748 5.798-13.999 5.798s-10.287-2.086-14-5.799-5.799-8.749-5.799-14 2.085-10.286 5.798-13.999c3.362-3.362 7.001-7.001 7.001-7.001z" fill="url(#_Linear5)"/></g><g transform="translate(1677 3)"><path d="m57 49c-4.645-4.645-25.431-25.431-26-26-.531-.531-.829-1.25-.829-2s.298-1.469.829-2c1.392-1.392 3-3 3-3l30 30s-1.608 1.608-3 3c-.531.531-1.25.829-2 .829s-1.469-.298-2-.829z" fill="#d3dfe0"/></g><g transform="translate(1677 3)"><path d="m57 49c-4.645-4.645-25.431-25.431-26-26-.531-.531-.829-1.25-.829-2s.298-1.469.829-2c1.392-1.392 3-3 3-3l30 30s-1.608 1.608-3 3c-.531.531-1.25.829-2 .829s-1.469-.298-2-.829z" fill="#d3dfe0"/></g><g transform="matrix(.707 .707 -.722 .722 1724.23 -6.658)"><g><path d="m31 38c0-.463-.332-.863-.795-.958-.464-.095-.931.141-1.121.566l-4.95 11.076c-.135.303-.105.652.079.929.185.276.5.443.837.443h3.95v5.944c0 .463.332.863.795.958.464.095.931-.141 1.121-.566l4.95-11.076c.135-.303.105-.652-.079-.929-.185-.276-.5-.443-.837-.443h-3.95z" fill="url(#_Linear6)"/></g><g><path d="m30 38-4.95 11.077h4.95v6.923l4.95-11.077h-4.95z" fill="url(#_Linear7)"/></g></g></g></svg>