<svg id="Capa_1" enable-background="new 0 0 497 497" height="512" viewBox="0 0 497 497" width="512" xmlns="http://www.w3.org/2000/svg"><g><path d="m485.508 461.295-6.205-18.053c-2.911-8.468-13.648-11.021-20.058-4.769l-10.252 9.999c-1.505 1.468-2.605 3.3-3.194 5.318l-5.108 17.513c-1.072 3.675-.357 7.639 1.931 10.708l7.508 10.072c6.197 8.313 19.282 5.598 21.659-4.495l.353-1.499c.584-2.479 1.929-4.714 3.847-6.39l6.009-5.252c3.735-3.263 5.122-8.462 3.51-13.152z" fill="#ff6f7f"/><path d="m192.549 62.8 55.95 185.7-55.95 189.85c-.32-.29-.5-.45-.5-.45-5.38-4.86-13.92-3.08-16.92 3.51-2.5 5.51-9.07 7.85-14.49 5.17l-44.21-21.83c-20.64-10.19-25.44-31.02-17.59-46.73 7.76-15.52 13.63-32.07 15.66-49.37 2.24-19.14.84-45.11 8.99-62.63 5.36-11.5 3.5-25.07-4.74-34.71l-15.85-18.56c-4.47-5.23-7.86-11.29-10-17.83 0-.12-5.96-22.08-29.36-32.04l-37.66-16.02c-9.18-3.91-11.19-11.93-12.75-14.27-6.34-12.43 1.03-27.47 14.73-30.08l29.55-5.63c3.58-.68 1.69-.76 50.1 13.87 8.45 2.55 16.18-5.65 13.15-13.93l-7.28-19.89c-4.59-12.52 10.07-25.59 22.09-19.96.17.08 31.99 14.99 31.99 14.99 8.88 4.15 19.45.62 24.04-8.04.35-.39.71-.76 1.05-1.12z" fill="#5c84d9"/><path d="m465.549 132.17c-.02 0-2.96 3.49-3.37 8.82l-2.55 32.66c-.74 9.53-8.82 16.82-18.38 16.59-7.27-.18-13.93 4.03-16.88 10.68l-18.73 42.13c-3.44 7.76 2.58 16.4 11.05 15.85 7.19-.47 12.97 5.81 11.9 12.93l-1.32 8.81c-1.18 7.87 4.3 12.21 6.08 15.35 4.97 6.92 2.76 16.63-4.72 20.71-5.52 3.01-8.4 9.29-7.07 15.43l4.42 20.5c.74 3.41 2.7 6.42 5.52 8.47l10.07 7.32c9.1 6.62 10.79 19.52 3.7 28.26-8.66 10.69-17.35 24.38-31.71 27.55-12.61 2.78-26.97 7.97-39.66 3.21-.03-.01-16.67-6.25-28.63-10.73l-42.945-168.21 42.945-193.34c3.79 2.34 8.44 5.06 14.51 8.72 11.4 6.89 19.83 7.53 38.39 10.94 3.61.66 6.89 2.49 9.35 5.21l12.64 14c2.23 2.46 5.14 4.2 8.37 5l27.79 6.86c11.64 2.88 16.52 16.75 9.23 26.28z" fill="#ff6f7f"/><path d="m156.967 190.187c0-38.532 1.238-79.726 11.373-117.867-.294-.119-.591-.225-.881-.36 0 0-31.82-14.91-31.99-14.99-12.02-5.63-26.68 7.44-22.09 19.96l7.28 19.89c3.03 8.28-4.7 16.48-13.15 13.93-48.41-14.63-46.52-14.55-50.1-13.87l-29.55 5.63c-13.7 2.61-21.07 17.65-14.73 30.08 1.56 2.34 3.57 10.36 12.75 14.27l37.66 16.02c23.4 9.96 29.36 31.92 29.36 32.04 2.14 6.54 5.53 12.6 10 17.83l15.85 18.56c8.24 9.64 10.1 23.21 4.74 34.71-8.15 17.521-6.75 43.49-8.99 62.63-2.03 17.3-7.9 33.85-15.66 49.37-7.85 15.71-3.05 36.54 17.59 46.73l44.21 21.83c5.42 2.68 11.99.34 14.49-5.17 3-6.59 11.54-8.37 16.92-3.51 0 0 .18.16.5.45l23.867-80.985c-37.158-45.591-59.449-103.778-59.449-167.178z" fill="#4677d4"/><path d="m345.269 55.16v361.55c-6.72-2.52-11.97-4.49-11.97-4.49-15.33-5.78-27.96 4.34-40.54 11.69-10.96 6.4-17.01 18.73-15.36 31.31 1.18 8.98-6.27 16.74-15.3 15.92-10.86-.99-32.03 1.1-40.47-6.53-.06-.05-25.19-22.75-29.08-26.26v-375.55c7.98-8.23 14.48-8.69 26.62-9.99 9.72-1.05 17.45-8.64 18.66-18.34l3.14-25.09c.66-5.36 5.22-9.38 10.62-9.38h10.71c17.15 0 36.39 7.97 48.65 21.8l18.09 20.4c4.87 5.49 8.99 8.52 16.23 12.96z" fill="#eaeaea"/><path d="m192.549 322.84v115.51c3.89 3.51 29.02 26.21 29.08 26.26 8.44 7.63 29.61 5.54 40.47 6.53 9.03.82 16.48-6.94 15.3-15.92-1.65-12.58 4.4-24.91 15.36-31.31.703-.41 1.405-.831 2.109-1.255-42.557-23.283-78.017-57.909-102.319-99.815z" fill="#e2e2e2"/></g></svg>