<svg id="Capa_1" enable-background="new 0 0 512.002 512.002" height="512" viewBox="0 0 512.002 512.002" width="512" xmlns="http://www.w3.org/2000/svg"><g><path d="m99.994 410.346h361.439v86.201h-361.439z" fill="#e3e0e4"/><path d="m475.631 481.097c-1.634-6.935-2.867-14.76-3.598-23.18l-12.873-7.727 12.123-7.727c-.01-.843-.015-1.689-.015-2.538 0-14.927 1.534-29.667 4.16-41.17 0 0-6.937-1.351-20.84-3.366-46.095-6.681-168.893-20.675-370.416-17.039-16.369 10.266-15.543 107.624 0 118.532 11.692.298 23.024.558 34.036.784-5.812-19.511-3.473-60.279-3.473-60.279l145.446-15.453h190.639s-1.189 11.136-1.189 18.178c0 17.061 2.643 32.879 5.393 45.888l15.557 4.337z" fill="#c5bec6"/><path d="m260.182 437.386c4.267 0 7.726-3.459 7.726-7.726s-3.459-7.726-7.726-7.726h-141.69c-6.898 5.017-11.382 9.986-4.176 15.453h145.866z" fill="#b5adb7"/><path d="m81.581 437.386h33.155c.964-5.462 2.934-10.648 4.747-15.453h-37.902c-4.267 0-4.267 15.453 0 15.453z" fill="#a59da7"/><path d="m345.991 442.464c-4.267 0-7.726 3.459-7.726 7.726s3.459 7.726 7.726 7.726h104.548c6.833-5.393 4.288-9.999-.885-15.453h-103.663z" fill="#c5bec6"/><path d="m471.285 442.464h-21.63c.075 5.296.394 10.462.885 15.453h21.498c-.432-4.966-.691-10.135-.753-15.453z" fill="#a59da7"/><path d="m78.381 447.347-15.602 28.718c1.553 7.898 3.594 14.854 6.007 20.482l419.249 7.849c13.932 0 15.513-11.393 8.512-23.3h-397.669z" fill="#dc8995"/><path d="m496.548 389.985c8.534 0 5.789-12.228 0-22.135h-325.554l-34.07 21.045z" fill="#dc8995"/><path d="m496.553 367.849h-.006c-.001 8.533-6.919 15.451-15.453 15.451h-325.55l15.45-15.45h-111.505v72.076c0 13.178 1.201 25.515 3.29 36.139l15.591-15.591c.836 5.132 1.943 10.158 3.303 14.969.945 3.339 3.979 5.653 7.449 5.653h9.756c-8.666-25.664-9.756-59.307 0-82.342l397.671.001c10.115 0 17.961-9.719 14.707-20.328-1.954-6.372-8.038-10.578-14.703-10.578z" fill="#d5717f"/><path d="m496.549 481.095h-.002c-.001 8.533-6.919 15.451-15.453 15.451h-412.308c4.146 9.669 9.375 15.454 15.064 15.454h412.7c8.534 0 15.453-6.919 15.453-15.453s-6.92-15.452-15.454-15.452z" fill="#d5717f"/><path d="m251.566 242.224 9.091-9.091-56.105-54.397-.197 16.281c-5.642 44.718-44.033 1.761-48.925 49.139l26.907 49.391c73.664 0 24.507-45.682 69.229-51.323z" fill="#eaab8a"/><path d="m275.635 247.656-14.978-14.522-16.265 1.916c-44.723 5.641-1.763 44.033-49.142 48.926l1.425 14.57h13.145c47.38-4.893 4.42-43.285 49.142-48.926z" fill="#e5936a"/><path d="m41.328 442.596s128.057-133.199 128.142-138.255c1.384-12.157-13.068-24.482-13.068-24.482l-20.018-5.923-131.858 131.858c-6.035 6.035-6.035 15.819 0 21.854l12.695 12.695c8.273 7.46 18.072 8.287 24.107 2.253z" fill="#eaab8a"/><path d="m156.402 279.859 9.068 23.163-137.322 137.321c-3.017 3.017-7.909 3.017-10.927 0l9.107 9.107c6.035 6.035 15.819 6.035 21.854 0l131.858-131.858-13.61-34.766z" fill="#e5936a"/><path d="m195.899 309.037c6.741-6.741 7.376-17.036-5.056-29.469l-36.63-36.63c-6.741-6.741-17.671-6.741-24.413 0-6.741 6.741-6.741 17.671 0 24.413l36.631 36.63c11.583 11.584 22.726 11.798 29.468 5.056z" fill="#ffc5ae"/><path d="m211.448 300.174-20.606-20.606c6.741 6.741 6.741 17.671 0 24.413-6.741 6.741-17.671 6.741-24.413 0l20.606 20.606c6.741 6.741 17.671 6.741 24.413 0s6.742-17.671 0-24.413z" fill="#eaab8a"/><path d="m261.771 56.173-55.451 36.906-30.726 49.27 148.396 148.396 54.126-31.406 32.051-54.771z" fill="#eaab8a"/><path d="m249.407 43.809-63.274 32.03-22.902 54.147 12.363 12.363 86.177-86.176z" fill="#e5936a"/><path d="m367.077 141.288-38.934-38.935-69.067 46.529-37.406 59.734 39.039 39.04 58.014-43.965z" fill="#f3d332"/><path d="m312.688 86.898-61.595 45.661-44.773 60.707 15.35 15.35 106.473-106.263z" fill="#dbb72b"/><path d="m196.008 184.917 111.624-108.351c5.134-5.134 2.727-16.725-3.809-24.031-6.968-2.001-14.783-.264-20.273 5.226l-106.368 106.367c-5.134 5.134-6.977 12.302-5.559 18.909 4.933 6.712 18.895 7.37 24.385 1.88z" fill="#f7e365"/><path d="m312.688 57.76c-2.557-2.557-5.62-4.294-8.865-5.226 1.418 6.608-.424 13.775-5.559 18.909l-106.368 106.369c-5.489 5.489-13.304 7.227-20.273 5.226.804 3.747 2.647 7.317 5.559 10.229 8.046 8.046 21.092 8.046 29.138 0l106.368-106.369c8.046-8.046 8.046-21.091 0-29.138z" fill="#f3d332"/><path d="m279.529 268.442 111.623-108.352c5.134-5.134 2.727-16.725-3.809-24.031-6.968-2.001-14.783-.264-20.273 5.226l-106.367 106.368c-5.134 5.134-6.977 12.302-5.559 18.909 4.932 6.712 18.895 7.369 24.385 1.88z" fill="#f7e365"/><path d="m396.209 141.285c-2.557-2.557-5.62-4.294-8.865-5.226 1.418 6.608-.424 13.775-5.559 18.909l-106.368 106.369c-5.489 5.489-13.304 7.227-20.273 5.226.804 3.747 2.647 7.317 5.559 10.229 8.046 8.046 21.092 8.046 29.138 0l106.368-106.368c8.046-8.047 8.046-21.093 0-29.139z" fill="#f3d332"/><path d="m357.19 319.546 79.573-74.173c12.379-12.379 18.212-35.437-1.461-55.11-5.135-1.343-10.823-.018-14.848 4.006l-106.764 106.763c-4.024 4.024-5.349 9.713-4.006 14.848 11.432 11.432 35.127 16.045 47.506 3.666z" fill="#ffc5ae"/><path d="m442.307 194.269c-2.01-2.01-4.44-3.336-7.006-4.006 7.328 14.877 4.814 33.374-7.565 45.753l-72.3 72.3c-12.379 12.379-30.876 14.893-45.753 7.565.671 2.566 1.996 4.995 4.006 7.006 15.551 15.551 40.766 15.552 56.317 0l72.3-72.3c15.552-15.553 15.552-40.767.001-56.318z" fill="#eaab8a"/><path d="m138.998 136.001 115.356-117.515c2.331-2.331 1.528-8.727-2.899-13.154-15.23-8.807-35.043-6.702-48.074 6.329l-72.3 72.3c-13.031 13.031-15.136 32.843-6.329 48.073 5.585 5.584 11.915 6.298 14.246 3.967z" fill="#ffc5ae"/><path d="m259.698 33.514c6.035-6.035 6.035-15.819 0-21.854-2.521-2.521-5.298-4.626-8.243-6.329 1.421 2.91.834 6.451-1.496 8.781l-116.425 116.425c-2.331 2.331-5.871 2.917-8.781 1.496 1.703 2.946 3.809 5.723 6.329 8.244 6.035 6.035 15.819 6.035 21.854 0z" fill="#eaab8a"/></g></svg>