<svg id="Layer_1" enable-background="new 0 0 512 512" height="512" viewBox="0 0 512 512" width="512" xmlns="http://www.w3.org/2000/svg"><g clip-rule="evenodd" fill-rule="evenodd"><path d="m350.47 90.472h110.53c2.754 0 5 2.246 5 5v390.528h-115.53l-10-225.544z" fill="#e4e8eb"/><g fill="#a4d4ff"><path d="m393.829 128.903h28.811c2.754 0 5 2.246 5 5v28.811c0 2.754-2.246 5-5 5h-28.811c-2.754 0-5-2.246-5-5v-28.811c.001-2.754 2.247-5 5-5z"/><path d="m393.829 202.822h28.811c2.754 0 5 2.246 5 5v28.811c0 2.754-2.246 5-5 5h-28.811c-2.754 0-5-2.246-5-5v-28.811c.001-2.754 2.247-5 5-5z"/><path d="m393.829 276.742h28.811c2.754 0 5 2.246 5 5v28.811c0 2.754-2.246 5-5 5h-28.811c-2.754 0-5-2.246-5-5v-28.811c.001-2.755 2.247-5 5-5z"/><path d="m393.829 350.661h28.811c2.754 0 5 2.246 5 5v28.811c0 2.754-2.246 5-5 5h-28.811c-2.754 0-5-2.246-5-5v-28.811c.001-2.754 2.247-5 5-5z"/></g><path d="m51 90.472h110.53l10 171.269-10 224.259h-115.53v-390.528c0-2.754 2.246-5 5-5z" fill="#e4e8eb"/><path d="m89.36 128.903h28.811c2.754 0 5 2.246 5 5v28.811c0 2.754-2.246 5-5 5h-28.811c-2.754 0-5-2.246-5-5v-28.811c0-2.754 2.246-5 5-5z" fill="#a4d4ff"/><path d="m89.36 202.822h28.811c2.754 0 5 2.246 5 5v28.811c0 2.754-2.246 5-5 5h-28.811c-2.754 0-5-2.246-5-5v-28.811c0-2.754 2.246-5 5-5z" fill="#a4d4ff"/><path d="m89.36 276.742h28.811c2.754 0 5 2.246 5 5v28.811c0 2.754-2.246 5-5 5h-28.811c-2.754 0-5-2.246-5-5v-28.811c0-2.755 2.246-5 5-5z" fill="#a4d4ff"/><path d="m89.36 350.661h28.811c2.754 0 5 2.246 5 5v28.811c0 2.754-2.246 5-5 5h-28.811c-2.754 0-5-2.246-5-5v-28.811c0-2.754 2.246-5 5-5z" fill="#a4d4ff"/><path d="m166.53 16h178.94c2.754 0 5 2.246 5 5v465h-188.94v-465c0-2.754 2.246-5 5-5z" fill="#f4f6f8"/><path d="m199.473 202.285h113.053c2.754 0 5 2.246 5 5v29.348c0 2.754-2.246 5-5 5h-113.053c-2.754 0-5-2.246-5-5v-29.348c.001-2.754 2.247-5 5-5z" fill="#a4d4ff"/><path d="m199.473 350.661h113.053c2.754 0 5 2.246 5 5v115.339c0 2.754-2.246 5-5 5h-113.053c-2.754 0-5-2.246-5-5v-115.339c.001-2.754 2.247-5 5-5z" fill="#d5a889"/><path d="m249 350.661h14v125.338h-14z" fill="#937661"/><path d="m199.473 276.204h113.053c2.754 0 5 2.246 5 5v29.348c0 2.754-2.246 5-5 5h-113.053c-2.754 0-5-2.246-5-5v-29.348c.001-2.754 2.247-5 5-5z" fill="#a4d4ff"/><path d="m21 467.601h470c2.754 0 5 2.246 5 5v18.399c0 2.754-2.246 5-5 5h-470c-2.754 0-5-2.246-5-5v-18.399c0-2.754 2.246-5 5-5z" fill="#cad0d7"/><ellipse cx="256" cy="104.382" fill="#f76c82" rx="64.055" ry="64.055" transform="matrix(.924 -.383 .383 .924 -20.459 105.913)"/><path d="m241.807 67.707h28.387v22.482h22.482v28.387h-22.482v22.482h-28.387v-22.482h-22.482v-28.387h22.482z" fill="#f4f6f8"/></g></svg>