<svg id="Capa_1" enable-background="new 0 0 512 512" viewBox="0 0 512 512" xmlns="http://www.w3.org/2000/svg"><g><g><g><g><path d="m262.055 203.12 59.978-43.577c13.339-9.692 21.233-25.183 21.233-41.672v-80.088c0-14.224-11.531-25.755-25.755-25.755h-123.023c-14.224 0-25.755 11.531-25.755 25.755v80.088c0 16.488 7.893 31.98 21.233 41.672l59.978 43.577c3.611 2.623 8.501 2.623 12.111 0z" fill="#a2e62e"/></g><g><path d="m317.512 12.029h-10.905v86.088c0 16.488-7.893 31.98-21.233 41.672l-61.299 44.537 25.869 18.795c3.611 2.623 8.5 2.623 12.111 0l59.978-43.577c13.339-9.692 21.233-25.183 21.233-41.672v-80.089c.001-14.224-11.53-25.754-25.754-25.754z" fill="#97d729"/></g><g><g><path d="m246.422 138.971c-4.13 0-8.091-1.64-11.011-4.561l-31.494-31.494c-6.082-6.081-6.082-15.942 0-22.023s15.942-6.083 22.023 0l20.482 20.482 39.637-39.638c6.082-6.081 15.941-6.083 22.023 0 6.082 6.081 6.082 15.941.001 22.023l-50.649 50.651c-2.92 2.92-6.881 4.56-11.012 4.56z" fill="#fff"/></g></g></g><g><g><g><path d="m364.502 287.422h-31.802c-19.986 0-36.188 16.202-36.188 36.188v15.31c6.263 6.352 10.138 15.065 10.138 24.669v44.877h37.35v-12.975c0-10.817 4.212-20.987 11.861-28.636l44.79-44.789c-.809-19.269-16.68-34.644-36.149-34.644z" fill="#26a6fe"/></g><g><g><path d="m368.419 354.299 32.234-32.233c-.789-18.766-15.866-33.832-34.637-34.605 1.547 4.027 2.403 8.397 2.403 12.969z" fill="#0593fc"/></g><g><path d="m306.651 385.286v23.181h37.349v-12.975c0-3.491.445-6.913 1.297-10.206z" fill="#0593fc"/></g></g><g><circle cx="348.602" cy="232.147" fill="#ffb09e" r="29.554"/></g><g><path d="m348.602 202.593c-.745 0-1.481.037-2.213.091 4.649 5.222 7.478 12.1 7.478 19.641 0 15.577-12.054 28.33-27.341 29.463 5.413 6.08 13.295 9.913 22.075 9.913 16.322 0 29.554-13.232 29.554-29.554s-13.231-29.554-29.553-29.554z" fill="#f89580"/></g></g><g><g><path d="m204.534 408.467v-44.877c0-10.012 4.214-19.053 10.953-25.463v-14.517c0-19.986-16.202-36.188-36.188-36.188h-31.802c-19.468 0-35.339 15.375-36.149 34.644l44.79 44.789c7.649 7.649 11.861 17.819 11.861 28.636v12.975h36.535z" fill="#26a6fe"/></g><g><path d="m204.534 408.467v-44.877c0-10.012 4.214-19.053 10.953-25.463v-14.517c0-19.556-15.515-35.479-34.906-36.155 1.548 4.029 2.406 8.4 2.406 12.975v74.555c0 5.69-4.612 10.302-10.302 10.302h-5.981c.851 3.293 1.297 6.715 1.297 10.206v12.975h36.533z" fill="#0593fc"/></g><g><circle cx="163.398" cy="232.147" fill="#ffb09e" r="29.554"/></g></g><g><g><path d="m307.681 408.467v-44.877c0-19.986-16.202-36.188-36.188-36.188h-31.802c-19.986 0-36.188 16.202-36.188 36.188v44.878h104.178z" fill="#8ac9fe"/></g><g><path d="m280.952 328.659c1.265 3.685 1.961 7.635 1.961 11.75v34.576c0 5.69-4.612 10.302-10.302 10.302h-69.108v23.181h104.177v-44.877c.001-16.714-11.331-30.773-26.728-34.932z" fill="#60b7ff"/></g><g><circle cx="255.592" cy="272.126" fill="#ffb09e" r="29.554"/></g></g></g><g><g><g><g><g><g><path d="m169.03 494.82v-99.329c0-11.014-4.375-21.576-12.163-29.364l-80.257-80.256c-4.446-4.446-11.676-4.504-16.135-.071-1.49 1.481-2.807 3.069-3.973 4.73v-75.62c0-22.058-17.83-39.952-39.863-40.056-9.151-.043-16.639 7.345-16.639 16.495v139.959c0 11.705 4.65 22.93 12.927 31.207l71.952 71.952c4.867 4.867 7.602 11.469 7.602 18.353v42.001c0 2.845 2.306 5.151 5.151 5.151h66.247c2.844-.001 5.151-2.307 5.151-5.152z" fill="#ffb09e"/></g><g><g><path d="m169.029 395.492c0-11.014-4.375-21.576-12.163-29.364l-16.247-16.247v108.035c0 8.534-6.918 15.453-15.453 15.453h-32.686v21.452c0 2.845 2.306 5.151 5.151 5.151h66.247c2.845 0 5.151-2.306 5.151-5.151z" fill="#f89580"/></g></g><g><path d="m86.459 335.914c-12.051-12.051-13.411-30.734-4.099-44.293l-5.75-5.75c-4.439-4.439-11.66-4.513-16.115-.091-13.687 13.588-13.717 35.7-.091 49.326l35.056 35.056c3.567 3.567 9.379 3.472 12.827-.211 3.291-3.515 3.201-9.008-.204-12.413z" fill="#f89580"/></g></g></g></g></g><g><g><g><g><g><path d="m342.97 494.82v-99.329c0-11.014 4.375-21.576 12.163-29.364l80.257-80.257c4.446-4.446 11.676-4.504 16.135-.071 1.49 1.481 2.807 3.069 3.973 4.73v-75.62c0-22.058 17.83-39.952 39.863-40.056 9.15-.043 16.638 7.344 16.638 16.494v139.959c0 11.705-4.65 22.93-12.927 31.207l-71.952 71.952c-4.867 4.867-7.602 11.469-7.602 18.353v42.001c0 2.845-2.306 5.151-5.151 5.151h-66.247c-2.843.001-5.15-2.305-5.15-5.15z" fill="#ffb09e"/></g><g><path d="m512 191.349c0-9.04-7.28-16.466-16.321-16.495-3.435-.011-6.766.418-9.949 1.221v128.63c0 11.705-4.65 22.93-12.926 31.207l-71.952 71.952c-4.867 4.867-7.602 11.469-7.602 18.353v31.699c0 8.534-6.918 15.453-15.453 15.453h-34.827v21.452c0 2.845 2.306 5.151 5.151 5.151h66.247c2.845 0 5.151-2.306 5.151-5.151v-42.001c0-6.884 2.734-13.485 7.602-18.353l71.952-71.952c8.277-8.277 12.927-19.502 12.927-31.207z" fill="#f89580"/></g></g></g><path d="m451.505 285.78c-4.455-4.423-11.676-4.348-16.115.091l-1.808 1.808c9.91 13.615 8.727 32.79-3.555 45.073l-25.322 25.322c-3.271 3.271-3.307 8.562-.082 11.878 3.289 3.381 8.708 3.419 12.044.083l34.929-34.929c13.627-13.626 13.596-35.738-.091-49.326z" fill="#f89580"/></g></g></g><g><path d="m255.592 242.573c-.745 0-1.481.037-2.213.091 4.649 5.222 7.478 12.1 7.478 19.641 0 15.577-12.054 28.33-27.341 29.463 5.413 6.08 13.295 9.913 22.075 9.913 16.322 0 29.554-13.232 29.554-29.554.001-16.323-13.231-29.554-29.553-29.554z" fill="#f89580"/></g><g><path d="m163.398 202.593c-.745 0-1.481.037-2.213.091 4.649 5.222 7.478 12.1 7.478 19.641 0 15.577-12.054 28.33-27.341 29.463 5.413 6.08 13.295 9.913 22.075 9.913 16.322 0 29.554-13.232 29.554-29.554.001-16.322-13.231-29.554-29.553-29.554z" fill="#f89580"/></g></g></g><g/><g/><g/><g/><g/><g/><g/><g/><g/><g/><g/><g/><g/><g/><g/></svg>