<svg xmlns="http://www.w3.org/2000/svg" viewBox="0 0 512 512" fill="currentColor"><path d="M220 337.6a7.5 7.5 0 00-10.6 0l-53.3 53.3a7.5 7.5 0 0010.6 10.6l53.3-53.3a7.5 7.5 0 000-10.6z"/><path d="M177.3 332.6a7.5 7.5 0 00-10.6 0l-34.4 34.4a7.5 7.5 0 0010.6 10.6l34.4-34.4a7.5 7.5 0 000-10.6z"/><path d="M414.7 105.2a22.3 22.3 0 00-21-14.1c-12.2 0-22.3 10.2-22.3 22.3 0 6 2.3 11.6 6.5 15.8s9.8 6.5 15.8 6.5c15.5 0 26.4-16.1 20.7-30.5zm-15.6 13.4c-4.5 4.5-12.5 1.2-12.5-5.2 0-2 .8-3.8 2.1-5.2s3.2-2.1 5.2-2.1c6.4 0 9.7 8 5.2 12.5z"/><path d="M510.7 82.3c-4.5-15.9-19.1-27-35.6-27-1.5 0-3 .1-4.4.3a66.5 66.5 0 00-8.7-10.4 67 67 0 00-16.7-12.8l5.5-22.2C453 1.5 441.8 0 435.8 0c-14.7 0-27.9 8.8-33.7 22a74 74 0 00-26.2 5.6L355.7 7.4c-3.2-3.2-8-2.6-11 .5-12.6 12.6-14.2 32.1-4.8 46.4l-13.8 13.8-15.5-15.5c-3.2-3.2-8.1-2.6-11.1.5-7 7-10.8 16.3-10.8 26.1 0 7.3 2.1 14.3 6.1 20.3L281 113.3l-15.5-15.5c-3.2-3.2-8.1-2.6-11.1.5-12.6 12.6-14.2 32.1-4.8 46.4l-13.8 13.8-15.5-15.5c-3.2-3.2-8-2.6-11.1.5-12.6 12.6-14.2 32.1-4.8 46.4l-11.3 11.3a52.8 52.8 0 00-42.5-13.1l-8.5-43.4c-6.8-34.6-41.4-57.7-75.9-50.9-34.6 6.8-57.7 41.4-50.9 75.9l21.7 110.3-12.7 12.8a35.6 35.6 0 000 50.5l7.8 7.8L5.3 408.9c-10 21.8-2.2 49.1 14 65.5l19.7 19.7c23.8 23.8 63.6 23.8 87.4 0L317 303.4l15.5 15.5c3.2 3.2 8 2.6 11.1-.5 12.6-12.6 14.2-32.1 4.8-46.4l13.8-13.8 15.5 15.5c1.5 1.5 3.4 2.2 5.3 2.2 2.3 0 4.2-1.1 5.8-2.7 12.6-12.6 14.2-32.1 4.8-46.4l13.8-13.8 15.5 15.5c3.2 3.2 8.1 2.5 11.1-.5 12.2-12.2 14.3-32 4.8-46.4l13.8-13.8 15.5 15.5c3.2 3.2 8.1 2.5 11.1-.5 14.2-14.2 14.4-37.1.7-51.6a74.5 74.5 0 005.5-33.5l20.4-5.7c3.8-1.5 5.6-6 4.4-10.2zM434.2 15.1l-2.7 11.1a67 67 0 00-12.6-3.2 33.2 33.2 0 0115.3-7.9zm-83 9l10.7 10.7c-.8.5-6.1 4.3-7.8 5.8l-3.2 2.8c-2.8-6.1-2.7-13.2.3-19.3zM306 69.2l9.5 9.5-9.8 9.8a22 22 0 01-2-9.3c0-3.5.8-6.9 2.3-10zm-45.2 45.2l9.5 9.5-9.8 9.8a22 22 0 01-2-9.3c0-3.5.8-6.9 2.4-10zm-45.2 45.2l9.5 9.5-9.8 9.8c-2.8-6.1-2.7-13.2.3-19.3zM29.9 166.7C24.6 140.2 42.5 113.7 69 108.4c26.5-5.2 53.1 12.6 58.3 39.1l27.7 140.5c1.3 6.4-3 12.7-9.4 14-6.4 1.3-12.7-3-14-9.4L104 152.2c-2.8-14-16.4-23.1-30.3-20.3-13.8 2.7-23.1 16.5-20.3 30.3l16.7 84.8-20.3 20.3-20.8-100.6zm71.2 49l-18.4 18.4-14.8-74.9c-1.1-5.8 2.7-11.6 8.5-12.7 5.8-1.2 11.5 2.7 12.7 8.5l12 60.7zm14.7 267.8c-18 18-48.2 18-66.2 0L29.9 463.9c-11.8-11.8-18.2-32.9-11-48.7l24.2-52.9 16.6 16.6-20.3 44.3c-3.7 8.2 0 19.2 6 25.2l19.7 19.7c9.5 9.5 25.5 9.6 35.1 0l24.4-24.4 15.5 15.5-24.3 24.3zm-44.7-93.4l42.9 42.9-24.4 24.4a9.8 9.8 0 01-13.9 0l-19.7-19.7c-2.4-2.4-3.4-5.7-2.7-9l17.7-38.6zm79.6 58.4L34.7 332.6a20.7 20.7 0 010-29.2l69.9-69.9 12.2 62.1c2.8 14.2 17.1 24.1 31.6 21.2 14.4-2.8 24.1-17.2 21.2-31.6l-16.2-82.1c12.8-.3 25.3 4.6 34.5 13.8l97.3 97.3-134.6 134.6zm186.3-146.2l-9.5-9.5 9.8-9.8c2.8 6.1 2.7 13.2-.3 19.3zm45.2-45.2l-9.5-9.5 9.8-9.8c2.8 6.1 2.7 13.2-.3 19.3zm45.2-45.2l-9.5-9.5 9.8-9.8a22 22 0 012 9.3c0 3.5-.8 6.9-2.4 10zm24-64.2L296 303.4l-12.9-12.9 19.3-19.3a7.5 7.5 0 00-10.6-10.6l-19.3 19.3-44.9-44.9L383 79.5c12.4-12.4 32.5-12.4 44.9 0s12.4 32.5 0 44.9L312.7 239.6a7.5 7.5 0 0010.6 10.6l115.2-115.2c8.8-8.8 13.7-20.6 13.7-33.1 0-12.5-4.9-24.2-13.7-33a46.7 46.7 0 00-66.1 0L216.9 224.4l-12.9-12.9L359.5 55.9c19.2-19.2 49.3-24.4 73.9-12.7 11.4 5.4 21 14.3 27.5 24.9 15.4 25.1 11.3 58.9-9.5 79.7zm21.2 19l-9.5-9.5c.4-.4.7-.7 1-1.1a67 67 0 008-10.1c3.6 6.4 3.7 14.2.4 20.7zm10.6-83.9a41 41 0 00-2.2-7.5l-1.8-4.7c5.8 1.1 10.9 4.5 14.2 9.4l-10.2 2.8z"/></svg>
